<svg width="16" height="16" viewBox="0 0 16 16" fill="none" xmlns="http://www.w3.org/2000/svg">
  <rect x="2.45" y="2.7" width="11.1" height="10.6" rx="1.8" stroke="currentColor" stroke-width="1.25"/>
  <path d="M8 3.05v9.9" stroke="currentColor" stroke-width="1.2" stroke-linecap="round"/>
  <path d="M5.95 5.15c-.95.43-1.43 1.1-1.43 2.02 0 .58-.27.94-.82 1.06.55.12.82.48.82 1.06 0 .92.48 1.59 1.43 2.02" stroke="currentColor" stroke-width="1.1" stroke-linecap="round" stroke-linejoin="round"/>
  <path d="M10.05 5.15c.95.43 1.43 1.1 1.43 2.02 0 .58.27.94.82 1.06-.55.12-.82.48-.82 1.06 0 .92-.48 1.59-1.43 2.02" stroke="currentColor" stroke-width="1.1" stroke-linecap="round" stroke-linejoin="round"/>
</svg>
